# xmcd
#
# Track frame offsets:
# 150
# 13980
# 35427
# 47242
# 62352
# 82937
# 98140
# 116590
# 134395
# 155235
# 169162
#
# Disc length: 2531 seconds
#
#
# Revision: 0
# Processed by: cddbd v1.5.1PL0 Copyright (c) Steve Scherf et al.
# Submitted via: FreeRIP 2.941 
#
DISCID=8e09e10b
DTITLE=Nancy  - Nancy
DYEAR=1900
DGENRE=Country
TTITLE0=Coal Miner's Daughter
TTITLE1=Fancy
TTITLE2=Stand By Your Man
TTITLE3=Take It Back
TTITLE4=My Heart Will Go On
TTITLE5=Why Haven't I Heard From You
TTITLE6=Help Me Get Over You
TTITLE7=No One Else On Earth
TTITLE8=Give Me One Reason
TTITLE9=Hopelessly Devoted to You
TTITLE10=Greatest Love Of All
EXTD=
EXTT0=
EXTT1=
EXTT2=
EXTT3=
EXTT4=
EXTT5=
EXTT6=
EXTT7=
EXTT8=
EXTT9=
EXTT10=
PLAYORDER=
